<?xml version="1.0" encoding="utf-8"?>
<!-- Generator: Adobe Illustrator 19.0.0, SVG Export Plug-In . SVG Version: 6.00 Build 0)  -->
<svg version="1.1" id="Layer_1" xmlns="http://www.w3.org/2000/svg" xmlns:xlink="http://www.w3.org/1999/xlink" x="0px" y="0px"
	 viewBox="0 0 680.2 473.3" style="enable-background:new 0 0 680.2 473.3;" xml:space="preserve">
<style type="text/css">
	.st0{fill:#FFFFFF;}
</style>
<g id="XMLID_65_">
	<path id="XMLID_66_" class="st0" d="M228.7,316.6c1.7,0,3.2,0.3,4.6,1c1.4,0.7,2,1.9,2,3.6c0,1.7-0.8,3.7-2.3,5.9
		c-2.5,5.1-4.4,8.4-5.6,9.8c-1.2,1.4-2.1,2.7-2.8,3.7c-5.8,7.6-11.4,14-16.8,19.1c-5.4,5.1-13,9.2-22.7,12.2
		c-0.3,0.2-0.8,0.4-1.3,0.8c-2.2,3.7-4.9,6.6-8.1,8.7c-3.2,2-6.6,3.5-10.2,4.3c-1,0.2-2.9,0.3-5.6,0.3c-3.7,0.3-7-0.6-9.9-2.8
		c-1.2-1.2-1.9-2-2.3-2.3c-0.7-0.5-1.4-1.3-2-2.3c-0.7-1-0.8-2-0.5-3.1l2-7.9c1.5-5.1,2.7-9.2,3.6-12.2c0.9-3.1,1.7-5.9,2.5-8.4
		c0.9-2.5,1.7-5.5,2.7-8.8c0.9-3.3,2.2-7.8,3.7-13.4c3.6-12,7-22.8,10.2-32.3c3.2-9.5,6.6-19.1,10.2-28.8
		c4.2-10.9,8.7-21.1,13.2-30.8c0.2-0.8,0.4-1.6,0.8-2.3c2-4.7,4.4-9,7-12.7c2.6-3.7,5.3-5.9,8-6.4c2.9-0.3,5.7,0.9,8.4,3.6
		c1.5,2,2.4,4.5,2.5,7.4c0.2,2.9,0.2,5.1,0,6.6c-0.7,4.8-1.9,9.3-3.6,13.7l-0.8,2.3c-2.9,9.3-6.5,18.5-10.9,27.5
		c-9.8,19.5-21.2,36.1-34.1,49.9c-0.3,0.2-0.9,1.8-1.8,4.8c-2.4,8.1-3.9,13.4-4.7,15.7s-1.4,4.2-1.9,5.7c1.5-2,3-3.8,4.3-5.2
		c1.4-1.4,3.1-2.9,5.1-4.5c3.6-3.1,6.8-4.7,9.7-5c2.9-0.3,5.6,0.4,8.1,1.9c2.5,2.2,3.7,5.1,3.4,8.8c-0.3,3.7-0.5,6.1-0.6,7.3
		c-1.9,5.6-3,8.5-3.3,8.7c5.1-1.7,10-5.1,14.8-10.2c4.7-5.1,9.7-10.9,14.8-17.3C221,330.3,224.4,324.8,228.7,316.6z M167.3,375.8
		c-1-0.1-1.9,0-2.5,0.1c-1.7,0.2-3.2,0.4-4.6,0.8c-0.3,0-1,0.1-2,0.4c-1,0.3-1.6,0.5-1.8,0.9c0,0.2,1.2,0.3,3.6,0.3
		c2.4,0,4.1-0.1,5.1-0.3c2.4-0.7,3.8-1.4,4.3-2C169,376,168.4,375.9,167.3,375.8z M178.5,361.5c1.5-3.7,3.1-7.8,4.6-12.2
		c1.2-2.7,1.2-4.6,0-5.6c-0.2,0-0.2,0,0,0c0.2,0,0.2,0,0,0c-1.2,0-2.9,0.9-5.1,2.8c-3.6,2.7-6.8,5.9-9.7,9.4c-1.9,2-3.9,4.6-6.1,7.6
		c-2.2,3.1-3.5,4.7-3.8,4.8c2-0.2,3.5-0.4,4.3-0.8c5.3-1,10.1-2.2,14.5-3.6C177.6,363,178,362.1,178.5,361.5z M184.8,278.5
		c-1.8,4.4-3.5,8.7-5.1,12.7c-1.6,4.1-3,7.6-4.1,10.6c-1.1,3-1.7,4.5-1.7,4.7c3.4-5.4,6.3-10.1,8.7-14c2.4-3.9,4.8-8.1,7.3-12.5
		c2.5-4.4,4.6-8.4,6.5-12c2-4.4,3.9-8.7,5.6-12.9c1.7-4.2,3.3-8.7,4.8-13.6l0.5-1.8c1.7-4.1,2.9-8.2,3.6-12.5
		c0.2-0.5,0.4-1.6,0.6-3.2c0.3-1.6-0.4-2.5-1.9-2.7c-1.9,0.5-3.4,2.4-4.5,5.7c-1.1,3.3-2,5.8-2.7,7.5c-0.2,0.7-0.3,1.3-0.5,1.8
		c-4.4,9.7-8.7,19.9-12.7,30.5C188,270.2,186.6,274.1,184.8,278.5z"/>
	<path id="XMLID_71_" class="st0" d="M259.5,358.9c-1.5,0-3.1-0.3-4.6-0.8c-1.5-1-3.3-3.1-5.3-6.1c-0.7-3.1-0.9-5.9-0.5-8.7
		c0-1.5,0.8-4,2.3-7.4c-0.2,0.2-0.9,1-2.2,2.5c-1.3,1.5-2.7,2.9-4.2,4.1c-4.8,3.6-9.2,5.3-13.2,5.1c-0.7,0.2-1.5,0.2-2.5,0
		c-1.2,0-2.9-0.9-5.1-2.8c-1.4-2-2.3-4.4-2.8-7.1c-0.3-2.9-0.1-5.9,0.8-8.9c0.9-2.7,1.9-4.9,3.1-6.6c3.7-5.8,6.4-9.6,7.9-11.5
		c2.2-1.9,4.4-3.3,6.6-4.3c3.1-1.5,5.9-2.2,8.7-2c2.5,0,4.9,0.4,7.1,1.3c2.2,0.9,4,2.4,5.3,4.6c0.2,0.3,0.6,1.1,1.3,2.3
		c0.7,1.2,1.4,2,2.3,2.5c2.2,1,2.6,3.3,1.3,6.9c-2.2,2.9-4,6.5-5.3,10.9c-1,4.4-1.7,8.5-2,12.2c-0.3,1-0.3,2,0,2.8
		c0.5,0.5,0.8,0.9,1,1.3c1-0.3,1.7-0.8,2-1.3c2.7-3.1,5-5.6,6.7-7.6c1.8-2,3.6-4,5.3-5.9c1.8-1.9,2.9-3.1,3.4-3.8
		c1.7-2,3.3-4,4.8-5.9c1-1.2,3.6-4.5,7.6-9.9c1.5,1.7,2.7,2.9,3.4,3.7s1.1,1.9,1.1,3.4c-0.3,2.2-0.9,4-1.8,5.3
		c-0.3,0.5-0.9,1.3-1.5,2.3c-0.7,1-1.3,1.8-1.8,2.3c-0.5,0.7-1.4,1.7-2.5,3.2c-1.2,1.4-2,2.4-2.5,2.9c-0.9,1-2.1,2.5-3.8,4.3
		c-1.7,1.9-3.4,3.7-5.1,5.5c-1.7,1.8-3.8,3.9-6.4,6.5C265.7,356.9,262.7,358.4,259.5,358.9z M253.4,320.5c0.2-1.9-0.2-3.1-1-3.8
		c-1.2-1.4-2.6-2-4.3-2c-3.1,0-5.9,1.1-8.4,3.3c-2.5,2.4-4.6,5.2-6.1,8.4c-0.7,1.5-1.4,3.4-2.3,5.5c-0.9,2.1-1,3.9-0.5,5.2
		c0.3,0.3,0.5,0.6,0.5,0.8c0.3,0.3,0.4,0.5,0.3,0.5c1.4,0.3,2.8,0,4.2-1.1c1.4-1.1,3.3-2.5,5.5-4.2
		C246.3,328.4,250.3,324.2,253.4,320.5z"/>
	<path id="XMLID_74_" class="st0" d="M289,356.9c0,4.6,0.8,7.7,2.3,9.4c0.5,0.9,1.1,1.2,1.8,1c1.5-0.3,2.8-1.1,3.7-2.2
		c0.9-1.1,2.2-2.7,3.7-4.7c2.7-4.4,4.6-8.1,5.6-10.9c1.5-2.7,2.6-5,3.2-6.9c0.6-1.9,1.4-3.9,2.4-6.1c1.2-3.1,2.6-6.4,4.3-10.2
		c1.7-3.7,3.5-7.1,5.3-10.2c2.5,0.5,4.2,1,4.8,1.5c0.7,0.5,1,1.8,1,3.8c-0.2,1.2-0.6,3-1.3,5.3c-0.5,1-1.4,2.9-2.7,5.6
		c-1.3,2.7-2.3,5.4-3.2,8.1c-0.7,1.5-1.6,3.5-2.7,6c-1.1,2.5-2.2,5-3.2,7.5c-0.9,1.7-1.7,3.5-2.5,5.5c-0.9,2-2.3,4.5-4.3,7.8
		c-2.5,3.1-4.7,5.5-6.5,7.3c-1.8,1.8-4.4,2.7-7.8,2.7c-1.5,0-3.2-0.4-5-1.3c-1.8-0.8-3.3-2-4.5-3.6c-2.9-3.7-4.2-9.5-4.1-17.3
		c0.5-7,1.5-14.2,3.1-21.6c1.9-7.6,3.7-14.4,5.3-20.4c1-2.9,1.8-5.7,2.3-8.5s1.4-6.3,2.8-10.6c2-7,4-13.6,5.9-19.9l-22.7-1.3
		c-3.2,0-4.9-1.5-5.1-4.6c0-1.4,0.6-2.5,1.7-3.3c1.1-0.8,2.3-1.3,3.7-1.3l25.2,1.5c2.5-7.8,4.7-14.3,6.4-19.3
		c1.5-3.2,3.6-4.2,6.1-2.8c2.9,0.9,3.8,2.9,2.8,6.1c-1.4,4.6-3.2,10.2-5.6,16.8l12,0.8c3.2,0.5,6.3,0.4,9.2-0.3c1-0.5,2-1,3.1-1.5
		s1.7-1.2,2-2c1-2.7,3-3.8,5.9-3.3c2,0.5,3.2,1,3.6,1.5c0.3,0.5,0.3,1.8,0,3.8c-0.2,1-0.7,2.2-1.7,3.6c-0.9,1.4-1.9,2.5-2.9,3.6
		c-2,1.7-4.5,2.9-7.4,3.6c-3.6,0.9-7.2,1.1-10.9,0.8c-0.3,0-0.8-0.1-1.3-0.3l-14-0.8c-1.7,6.8-4,14-6.9,21.6
		c-1.4,4.2-2.5,8.5-3.6,12.9s-2,8-2.8,11.1c-1.7,5.9-3.2,12.1-4.6,18.6C289.7,345.7,289,351.4,289,356.9z"/>
	<path id="XMLID_76_" class="st0" d="M345.8,360.7c-2.5,1.4-5.1,2.7-7.6,3.9c-2.5,1.3-5.3,1.9-8.1,1.9c-4.8,0.2-9.2-1.9-13.2-6.1
		l-0.5-0.8c-3.4-5.6-4.7-11-4.1-16.3c1-2.7,2-5.9,2.8-9.4c1-3.4,1.8-5.9,2.3-7.4c1-2.5,1.9-5.2,2.5-7.9c1-1.7,1.6-2.6,1.8-2.8
		c0.9-0.8,2.1-1.2,3.8-1c4.1,0.9,5.5,3.1,4.3,6.9c-0.9,2.5-1.8,5.5-2.8,8.9c-1.5,4.6-3,9.2-4.3,13.7c-0.3,3.2,0.6,6.6,2.8,10.2
		c1.5,1.4,3.1,2,4.6,2c2.7-0.5,5.2-1.1,7.4-1.8c5.9-3.4,11.2-7.3,15.8-11.7c2.4-2.2,4.5-4.4,6.4-6.6c2-2.4,4.3-4.9,6.9-7.6
		c1.5-2,2.6-3.4,3.3-4.1c0.7-1.2,3.3-4.5,7.9-9.9c1,1,1.9,1.7,2.8,2.2c0.8,0.4,1.5,2,2,4.7c0,2.4-0.7,4.3-2,5.9
		c-0.5,0.5-1.1,1.2-1.8,2.2c-0.7,0.9-1.1,1.5-1.3,1.7c-0.7,0.7-1.8,2-3.3,4.1c-4.6,5.8-9.4,10.9-14.5,15.5
		C357.5,353,352.9,356.3,345.8,360.7z M322.9,306.7c0.3-1.9,1.1-3.3,2.3-4.3c1.2-1,2.5-1.5,4.1-1.5c2.2-0.3,3.6,0.3,4.3,1.8
		c1,0.5,1.4,2,1.3,4.3c0,1.5-0.5,2.8-1.5,3.8c-0.7,1.2-2,1.8-4.1,1.8C326.3,312.6,324.2,310.6,322.9,306.7z"/>
	<path id="XMLID_79_" class="st0" d="M432.1,314.4c1,1,2.1,1.8,3.2,2.4c1.1,0.6,1.7,2.2,1.7,4.7c0.3,1.9-0.1,3.7-1.3,5.6
		c-3.2,5.6-6,9.8-8.4,12.7c-2.5,3.6-5.6,7.1-9.2,10.7c-6.5,6.3-15.8,11.4-28,15.3c-0.5,1.9-2,3.7-4.3,5.6c-2.2,2.7-5,4.5-8.4,5.3
		c-0.7,0-1.7,0-3.1,0c-0.7-0.2-2.2-0.6-4.6-1.3c-1.7-1.4-3-2.5-3.8-3.6c-0.8-2.7-0.7-5.1,0.5-7.1c1.4-1.9,2.7-3.1,4.1-3.6
		c1.9-0.8,3.6-1.3,5.1-1.3c2.5-0.7,4.7-1.4,6.6-2c1.4-2.7,1.8-5.3,1.3-7.6c0-3.1-0.6-5.9-1.8-8.7c-1.2-3.6-2.4-6.6-3.6-9.2
		c-0.3-0.7-0.8-1.5-1.3-2.5c-0.7-2.4-1.4-4.1-2-5.1c0-0.7-0.2-1.7-0.5-3.1c0.2-2,0.3-3.2,0.5-3.6c1-3.1,2.1-5.3,3.3-6.6
		c1.7-1.7,4.1-2.9,7.1-3.6c0.5-0.2,1.4-0.5,2.7-1.1c1.3-0.6,2.2-1,2.7-1.1c1.4-0.7,2.4-1.2,3.1-1.5c1.7-1.5,3.8-1,6.4,1.5
		c1.5,3.2,0.9,5.6-1.8,7.1c-2,1.2-4.4,2.3-7.1,3.3c-0.5,0.2-1.4,0.5-2.7,1c-1.3,0.5-2.3,1-2.9,1.5c-0.7,0.2-1,0.4-1,0.8
		c0.2,0.7,0.5,1.9,1,3.6c0.3,0.9,0.6,1.6,0.8,2.3c0.5,1,1,2,1.5,3.1c1.4,3.1,2.5,6.4,3.6,9.9c0.8,3.9,1.4,7.6,1.8,10.9
		c0.3,1.5,0.3,3.4,0,5.6c0,0.5,0,0.6,0,0.1c0-0.4,0-0.5,0-0.1c3.7-1.7,7-3.4,9.9-5.1c4.2-2.7,7.5-5.4,9.9-8.1
		C419.8,334.5,426.1,325.4,432.1,314.4z M380.3,369.2c-1.1,1.1-2.4,1.7-3.9,1.7s-3.1-0.7-4.8-2c1-1,2-1.6,2.8-1.8
		c0.9-0.2,1.4-0.3,1.5-0.3c1-0.3,2.2-0.6,3.7-0.8c1.4-0.2,2.5-0.1,3.2,0.3C382.2,367.1,381.4,368.1,380.3,369.2z"/>
	<path id="XMLID_82_" class="st0" d="M432.3,356.9c0,4.6,0.8,7.7,2.3,9.4c0.5,0.9,1.1,1.2,1.8,1c1.5-0.3,2.8-1.1,3.7-2.2
		c0.9-1.1,2.2-2.7,3.7-4.7c2.7-4.4,4.6-8.1,5.6-10.9c1.5-2.7,2.6-5,3.2-6.9c0.6-1.9,1.4-3.9,2.4-6.1c1.2-3.1,2.6-6.4,4.3-10.2
		c1.7-3.7,3.5-7.1,5.3-10.2c2.5,0.5,4.2,1,4.8,1.5c0.7,0.5,1,1.8,1,3.8c-0.2,1.2-0.6,3-1.3,5.3c-0.5,1-1.4,2.9-2.7,5.6
		c-1.3,2.7-2.3,5.4-3.2,8.1c-0.7,1.5-1.6,3.5-2.7,6c-1.1,2.5-2.2,5-3.2,7.5c-0.9,1.7-1.7,3.5-2.5,5.5c-0.9,2-2.3,4.5-4.3,7.8
		c-2.5,3.1-4.7,5.5-6.5,7.3c-1.8,1.8-4.4,2.7-7.8,2.7c-1.5,0-3.2-0.4-5-1.3c-1.8-0.8-3.3-2-4.5-3.6c-2.9-3.7-4.2-9.5-4.1-17.3
		c0.5-7,1.5-14.2,3.1-21.6c1.9-7.6,3.7-14.4,5.3-20.4c1-2.9,1.8-5.7,2.3-8.5s1.4-6.3,2.8-10.6c2-7,4-13.6,5.9-19.9l-22.7-1.3
		c-3.2,0-4.9-1.5-5.1-4.6c0-1.4,0.6-2.5,1.7-3.3c1.1-0.8,2.3-1.3,3.7-1.3l25.2,1.5c2.5-7.8,4.7-14.3,6.4-19.3
		c1.5-3.2,3.6-4.2,6.1-2.8c2.9,0.9,3.8,2.9,2.8,6.1c-1.4,4.6-3.2,10.2-5.6,16.8l12,0.8c3.2,0.5,6.3,0.4,9.2-0.3c1-0.5,2-1,3.1-1.5
		s1.7-1.2,2-2c1-2.7,3-3.8,5.9-3.3c2,0.5,3.2,1,3.6,1.5c0.3,0.5,0.3,1.8,0,3.8c-0.2,1-0.7,2.2-1.7,3.6c-0.9,1.4-1.9,2.5-2.9,3.6
		c-2,1.7-4.5,2.9-7.4,3.6c-3.6,0.9-7.2,1.1-10.9,0.8c-0.3,0-0.8-0.1-1.3-0.3l-14-0.8c-1.7,6.8-4,14-6.9,21.6
		c-1.4,4.2-2.5,8.5-3.6,12.9c-1,4.3-2,8-2.8,11.1c-1.7,5.9-3.2,12.1-4.6,18.6C433,345.7,432.3,351.4,432.3,356.9z"/>
	<path id="XMLID_84_" class="st0" d="M495.5,358.9c-1.5,0-3.1-0.3-4.6-0.8c-1.5-1-3.3-3.1-5.3-6.1c-0.7-3.1-0.9-5.9-0.5-8.7
		c0-1.5,0.8-4,2.3-7.4c-0.2,0.2-0.9,1-2.2,2.5c-1.3,1.5-2.7,2.9-4.2,4.1c-4.8,3.6-9.2,5.3-13.2,5.1c-0.7,0.2-1.5,0.2-2.5,0
		c-1.2,0-2.9-0.9-5.1-2.8c-1.4-2-2.3-4.4-2.8-7.1c-0.3-2.9-0.1-5.9,0.8-8.9c0.9-2.7,1.9-4.9,3.1-6.6c3.7-5.8,6.4-9.6,7.9-11.5
		c2.2-1.9,4.4-3.3,6.6-4.3c3.1-1.5,5.9-2.2,8.7-2c2.5,0,4.9,0.4,7.1,1.3c2.2,0.9,4,2.4,5.3,4.6c0.2,0.3,0.6,1.1,1.3,2.3
		c0.7,1.2,1.4,2,2.3,2.5c2.2,1,2.6,3.3,1.3,6.9c-2.2,2.9-4,6.5-5.3,10.9c-1,4.4-1.7,8.5-2,12.2c-0.3,1-0.3,2,0,2.8
		c0.5,0.5,0.8,0.9,1,1.3c1-0.3,1.7-0.8,2-1.3c2.7-3.1,5-5.6,6.7-7.6c1.8-2,3.6-4,5.3-5.9c1.8-1.9,2.9-3.1,3.4-3.8
		c1.7-2,3.3-4,4.8-5.9c1-1.2,3.6-4.5,7.6-9.9c1.5,1.7,2.7,2.9,3.4,3.7s1.1,1.9,1.1,3.4c-0.3,2.2-0.9,4-1.8,5.3
		c-0.3,0.5-0.9,1.3-1.5,2.3c-0.7,1-1.3,1.8-1.8,2.3c-0.5,0.7-1.4,1.7-2.5,3.2c-1.2,1.4-2,2.4-2.5,2.9c-0.9,1-2.1,2.5-3.8,4.3
		c-1.7,1.9-3.4,3.7-5.1,5.5c-1.7,1.8-3.8,3.9-6.4,6.5C501.6,356.9,498.7,358.4,495.5,358.9z M489.3,320.5c0.2-1.9-0.2-3.1-1-3.8
		c-1.2-1.4-2.6-2-4.3-2c-3.1,0-5.9,1.1-8.4,3.3c-2.5,2.4-4.6,5.2-6.1,8.4c-0.7,1.5-1.4,3.4-2.3,5.5c-0.9,2.1-1,3.9-0.5,5.2
		c0.3,0.3,0.5,0.6,0.5,0.8c0.3,0.3,0.4,0.5,0.3,0.5c1.4,0.3,2.8,0,4.2-1.1c1.4-1.1,3.3-2.5,5.5-4.2
		C482.2,328.4,486.3,324.2,489.3,320.5z"/>
</g>
<g id="XMLID_42_">
	<path id="XMLID_43_" class="st0" d="M96.3,214.8h-0.2c-3.9,0-7.4-1.6-10.3-4.9c-3.3-3.8-4.8-9-4.7-15.8c0.2-3,0.4-5.9,0.6-8.7
		c0.2-2.9,0.7-5.9,1.4-9c1.5-5.6,3.1-10.4,4.9-14.5c1.8-3.8,2.8-5.9,3-6.4c0.2-1,0.5-2,1-3c1.3-3.1,3-6.5,5.2-10.1
		c1.3-2.1,3-3.5,5-4.1c2.1-0.6,4.2-0.9,6.5-0.9c1.8,0,3.7,0.3,5.8,1c2.1,0.7,3.7,2,5,3.9c2.3,3.6,3.4,9.1,3.2,16.5
		c-0.2,2.5-1.6,3.9-4.4,4.2h-0.7c-2.6-0.3-4.2-1.6-4.7-3.9c0.2-1.3,0.1-2.8-0.2-4.4c-0.2-1.6-0.5-3.2-1-4.7
		c-0.3-1.5-0.9-2.7-1.7-3.7c-0.5-0.5-0.7-1-0.6-1.6c0.1-0.6-0.1-0.9-0.6-0.9c-1,0-1.8,0.5-2.3,1.6c-0.6,1.1-1.1,2.1-1.6,3.1
		c-1.5,3.1-2.9,5.9-4.2,8.4c-0.3,0.7-0.6,1.3-0.7,2c-1.5,3.4-3,7.5-4.4,12.1c-1.5,4.3-2.6,8.6-3.4,13.1c-0.8,4.1-1.1,8-0.7,11.8
		c0.3,3.1,1,5.7,2,7.6c0.8,1,1.9,1.4,3.2,1.2c3.8-0.3,8.2-2.5,13.3-6.4c5.7-4.4,11.5-9.5,17.2-15.3c5.6-5.7,10.9-11.7,16-17.7
		c2.8-3.3,5-5.9,6.8-7.8c1.7-1.9,3.4-3.8,5-5.8c0.8-1,2.5-3.1,5.2-6.4c1-0.3,2.3,0,3.8,1.1c1.6,1.1,2.3,2.1,2.3,3.1
		c0,2-0.6,3.9-1.7,5.9c-0.5,0.7-1.6,2.1-3.4,4.2c-1.8,2.1-3.2,3.8-4.2,4.9c-1,1-2.3,2.5-3.9,4.4c-1.6,2-3.9,4.7-6.9,8.1
		c-5.9,6.9-11.7,13.1-17.5,18.5c-5.7,5.6-11.3,10.1-16.7,13.5C106,212.5,100.9,214.4,96.3,214.8z"/>
	<path id="XMLID_45_" class="st0" d="M190.1,185.7c-1.5,0-3-0.2-4.4-0.7c-1.5-1-3.2-3-5.2-5.9c-0.7-3-0.8-5.7-0.5-8.4
		c0-1.5,0.7-3.9,2.2-7.1c-0.2,0.2-0.9,1-2.1,2.5c-1.2,1.5-2.6,2.8-4.1,3.9c-4.6,3.4-8.9,5.1-12.8,4.9c-0.7,0.2-1.5,0.2-2.5,0
		c-1.1,0-2.8-0.9-4.9-2.7c-1.3-2-2.2-4.3-2.7-6.9c-0.3-2.8-0.1-5.7,0.7-8.6c0.8-2.6,1.8-4.8,3-6.4c3.6-5.6,6.2-9.3,7.6-11.1
		c2.1-1.8,4.3-3.2,6.4-4.2c3-1.5,5.7-2.1,8.4-2c2.5,0,4.8,0.4,6.9,1.2c2.1,0.8,3.9,2.3,5.2,4.4c0.2,0.3,0.6,1.1,1.2,2.2
		c0.7,1.2,1.4,2,2.2,2.5c2.1,1,2.5,3.2,1.2,6.6c-2.1,2.8-3.9,6.3-5.2,10.6c-1,4.3-1.6,8.2-2,11.8c-0.3,1-0.3,1.9,0,2.7
		c0.5,0.5,0.8,0.9,1,1.2c1-0.3,1.6-0.7,2-1.2c2.6-3,4.8-5.4,6.5-7.4c1.7-2,3.4-3.9,5.2-5.7c1.7-1.8,2.8-3,3.3-3.7
		c1.6-2,3.2-3.9,4.7-5.7c1-1.1,3.4-4.3,7.4-9.6c1.5,1.6,2.6,2.8,3.3,3.6s1.1,1.8,1.1,3.3c-0.3,2.1-0.9,3.9-1.7,5.2
		c-0.3,0.5-0.8,1.2-1.5,2.2c-0.7,1-1.2,1.7-1.7,2.2c-0.5,0.7-1.3,1.7-2.5,3.1c-1.2,1.4-2,2.3-2.5,2.8c-0.8,1-2.1,2.4-3.7,4.2
		c-1.6,1.8-3.3,3.6-4.9,5.3c-1.6,1.7-3.7,3.8-6.2,6.3C196.1,183.7,193.3,185.2,190.1,185.7z M184.2,148.5c0.2-1.8-0.2-3-1-3.7
		c-1.2-1.3-2.5-2-4.2-2c-3,0-5.7,1.1-8.1,3.2c-2.5,2.3-4.4,5-5.9,8.1c-0.7,1.5-1.4,3.2-2.2,5.3c-0.8,2.1-1,3.7-0.5,5
		c0.3,0.3,0.5,0.6,0.5,0.7c0.3,0.3,0.4,0.5,0.2,0.5c1.3,0.3,2.7,0,4.1-1.1c1.4-1.1,3.2-2.4,5.3-4.1
		C177.3,156.2,181.3,152.1,184.2,148.5z"/>
	<path id="XMLID_48_" class="st0" d="M273.1,241.8c-1,1.1-2.1,2.5-3.4,4.2c-1.3,1.6-2.6,3.1-3.9,4.4c-1.5,1.3-3.1,2.5-4.9,3.6
		c-1.8,1.1-3.9,1.6-6.2,1.6h-1.5c-3.1-0.8-5.7-1.9-7.8-3.3c-2.1-1.4-3.8-3.6-5.3-6.5c-1.8-5.9-2.6-11.8-2.5-17.7
		c1.5-9.5,3.5-18.6,6.2-27.3c2.8-8.7,5.9-17,9.4-24.9c2.3-5.6,4.3-11,6.2-16.3c1.8-5.4,3.5-10.7,5.2-16c1.6-5.4,2.2-10.8,1.7-16.3
		c-0.3-2.3-0.9-4.3-1.7-5.9c-0.8-1.6-2.2-2.8-4.2-3.4c-1.5-0.8-3.4-1.2-5.7-1.2c-1.8-0.2-3.9-0.2-6.4,0c-2,0-3.1,0-3.4,0
		c0,0.2-0.2,0.7-0.7,1.5c-1.5,3.4-4.3,8.3-8.4,14.5c-1,1.5-2.2,3.4-3.6,5.8c-1.4,2.4-2.8,4.8-4.1,7.3c-1.3,2.3-2.7,4.4-4.2,6.2
		c-2.1,3-3.7,4.9-4.7,5.9c-0.7-0.7-1.4-1.5-2.3-2.6c-0.9-1.1-1.6-2.3-2.1-3.8c0-2.1,0.6-3.9,1.7-5.2c0.2-0.2,0.7-0.9,1.5-2.2
		c0.8-1.3,1.4-2.4,1.7-3.2c0.5-0.7,1.8-2.8,3.8-6.4c2.1-3.6,3.4-5.9,4.1-6.9c2-3.3,3.5-6.1,4.7-8.4c1.1-1.8,1.9-3.3,2.2-4.4
		c-0.8-0.2-1.8-0.5-3-1.1c-1.2-0.6-2.1-1.1-3-1.6c-1.5-1-2.8-2.6-3.9-4.9c-1-2.5-1.2-4.9-0.7-7.4c0.8-3.8,3-6.4,6.4-7.9
		c1.5-1,3.2-1.5,5.2-1.6c2-0.1,3.5,0.4,4.7,1.4c2,1,3.4,2.3,4.3,3.8c0.9,1.6,1.7,3.2,2.3,5c0.2,0.8,0.3,1.5,0.4,2.1
		c0.1,0.6,0.2,1.5,0.4,2.8l0.2,1.5c2,0,3.5,0.1,4.6,0.2c1.1,0.2,2.1,0.2,3.1,0.2c1.1,0.2,2.5,0.3,4.2,0.5c1.6,0.2,3.2,0.5,4.7,1
		c6.7,3.3,10.5,8.9,11.3,17c0.8,7.1,0.2,13.8-1.7,20.2c-1.6,5.4-3.4,11-5.4,16.7c-1.6,5.1-3.6,10.4-5.9,16
		c-3.1,8.2-6.2,16.5-9.4,24.9c-2.6,8-4.7,16.4-6.2,25.1c-0.3,3,0.2,6.7,1.5,11.3c0.8,3.1,2.7,4.9,5.7,5.4c1.8,0.2,3.5-0.7,5.2-2.5
		c2.5-2.1,4.5-4.4,6.2-6.6l59.1-91.6c1.5,0,2.8,0.2,4.1,0.7c1.2,0.5,1.8,1.8,1.8,3.9c-0.5,1.8-1.1,3.6-1.7,5.4L273.1,241.8z
		 M237.9,102.7c-0.3-1.5-1.1-2.5-2.2-3c-0.5-0.3-1.2-0.2-2.2,0.2c-0.8,1.5-0.7,2.7,0.2,3.7c0.2,0.3,0.5,0.7,1,1.2
		c1.1,0.7,2.3,1.2,3.4,1.7C238.6,105.2,238.6,103.9,237.9,102.7z"/>
	<path id="XMLID_51_" class="st0" d="M357.6,165.3c-1.3-0.2-2.2-0.3-2.7-0.5c-0.5-0.2-1.1,0-1.7,0.4c-0.7,0.4-1.1,0.5-1.2,0.1
		c0,0.5-0.4,1-1.1,1.5c-0.7,0.5-1.3,1.2-1.6,2c-1.5,4.4-3.9,8.5-7.1,12.3c-1.3,1.5-3.2,3-5.7,4.7c-2.3,1.8-4.9,2.8-7.9,3
		c-1.6-0.2-3.3-0.6-4.9-1.2c-3.1-1.1-5.5-3.4-7.1-6.6c-0.3-1.3-0.7-2.8-1-4.6c-0.3-1.7-0.5-3.4-0.5-5c0-4.4,0.8-8.9,2.5-13.3
		c1.8-4.3,3.9-8.2,6.4-11.8c1.6-2.3,3.7-2.7,6.2-1.2c1,0.8,1.7,1.7,2.2,2.6c0.5,0.9,0.2,2.2-0.7,3.8c-1.2,1.6-2.1,3.4-2.7,5.2
		c-0.7,1.5-1.5,3-2.5,4.7c-1.3,3.1-2.1,6.5-2.5,10.1c0,1.2,0.1,2.1,0.4,2.8c0.2,0.7,0.5,1.6,0.9,2.6c0.5,0.8,1.2,1.5,2,2
		c1.1,0.5,2.3,0.4,3.4-0.2c2-1.1,3.4-2.3,4.4-3.4c2.5-3,4.4-6.1,5.9-9.4c1.6-3.6,2.5-7.1,2.5-10.6c0-0.2,0.2-0.2,0.5-0.1
		c0.3,0.1,0.5,0,0.5-0.1c-2.3,0.2-4.6-0.2-6.9-1.2c-2.8-1.5-4.3-3.4-4.4-5.9c-0.5-2.8,0.6-4.7,3.2-5.7c0.8-0.5,1.9-0.7,3.2-0.6
		c1.3,0.1,2.6,0.1,3.9,0.1c1,0.3,1.7,0.7,2.2,1.1c0.5,0.4,1.1,0.8,2,1.1c1.6,1.5,2.7,3,3.2,4.4c0.2,0.5,0.4,1,0.7,1.5
		c0.7,1.5,1.7,2.8,3.2,3.9c0.8,0.8,1.9,1.6,3.2,2.2c3,0.3,5.6-0.5,7.9-2.6c2.3-2.1,4.6-4.8,6.9-8.2c0.8,0,2,0.6,3.6,1.7
		c1.6,1.1,2.3,2.1,2.3,3c0.2,1.6-0.3,3.4-1.5,5.4c-0.7,1.2-2.7,3.3-6.2,6.4c-3.4,2.5-6.8,3.8-10.1,3.9
		C359.9,165.4,358.9,165.4,357.6,165.3z M343.8,148.8c-0.5,0.3-1.4,0.4-2.7,0.2c-0.3-0.2-0.7-0.2-1.2-0.2c-1.2-0.8-1.6-1.5-1.2-2
		c0.7-0.7,1.6-0.7,3-0.2C343.2,147,343.9,147.8,343.8,148.8z"/>
	<path id="XMLID_54_" class="st0" d="M368.2,188.4c-1-1.3-1.5-2.7-1.5-4.2c0-1-0.1-1.8-0.2-2.5c-0.2-0.7-0.2-1.5-0.2-2.5
		c0.5-3.9,0.9-7.5,1.2-10.6c0.3-3.4,0.9-6.8,1.7-10.1c0.5-3.1,1.1-6.1,1.7-8.9c0.5-3.4,1.4-7.2,2.7-11.3c2.5-8.2,4.9-16.3,7.4-24.4
		l0.5-1.2c2.5-6.7,4.9-13.4,7.4-19.9c2.5-7.1,6.3-13.5,11.6-19.5c5.6-7.1,10.9-9.5,16-7.4c2.3,0.3,4.2,1.3,5.7,3c2,2,3,4.1,3.2,6.4
		c0.8,2.3,1.1,4.5,0.7,6.6c0,1.6-0.3,3.2-1,4.7c-1,3.6-2.2,7.2-3.7,10.8c-1.3,3-2.6,5.7-3.9,8.4c-5.1,8.9-10.7,16.7-16.7,23.6
		c-6.1,6.2-12.9,12.8-20.4,19.7c-0.3,2.3-0.7,4.3-1.2,5.9c-0.3,1.3-0.7,3-1.2,4.9c-0.7,3.3-1.2,6.6-1.5,10.1c-0.3,1.6-0.5,3-0.6,4.2
		c-0.1,1.2-0.2,2.5-0.4,4.2c0,0.8,0.2,2,0.7,3.4c1,1.3,2.3,2,3.9,2c1.8-0.3,4.3-1.3,7.6-3c3.6-2,8-5.6,13-10.8
		c2.5-3.3,5.1-7.3,7.9-12.1c3.4-6.2,6.2-10.9,8.4-14c1,0.5,2,1,3.1,1.5c1.1,0.5,1.8,1.5,2.3,3c0.5,1.5,0.5,2.8,0,3.8
		c-0.5,1.1-1,1.9-1.5,2.6c-1.5,2.5-3.1,5.3-4.9,8.6c-2.5,4.9-5.3,9.2-8.6,12.8c-4.6,5.1-12.2,10.5-22.7,16.3
		C377.4,193.6,371.9,192.2,368.2,188.4z M385.4,127.8c-1.6,3.9-2.5,6.3-2.7,7.1c0.7-0.7,2.4-2.5,5.2-5.5c2.8-3,5.2-5.5,7.1-7.5
		c5.6-6.6,10.5-13.4,14.8-20.4c1.3-2.6,2.5-5.3,3.7-8.1c1.3-2.8,2.3-5.9,3-9.4c0.5-1,0.7-2,0.7-3c0-0.5,0.2-1.4,0.5-2.6
		c0.3-1.2-0.2-2.5-1.7-3.8c-0.8-0.5-1.4-0.7-1.8-0.6c-0.4,0.1-1,0.2-1.8,0.4c-1,0.8-1.8,1.5-2.5,2.1c-0.7,0.6-1.5,1.6-2.5,3.1
		c-4.3,4.9-7.6,10.5-9.8,16.7c-2.3,5.7-4.7,11.9-7.1,18.5l-1,2.5C388.3,120.4,387,123.9,385.4,127.8z"/>
	<path id="XMLID_57_" class="st0" d="M440.3,187.4c-2.5,1.3-4.9,2.6-7.4,3.8c-2.5,1.2-5.1,1.8-7.9,1.8c-4.6,0.2-8.9-1.8-12.8-5.9
		l-0.5-0.7c-3.3-5.4-4.6-10.7-3.9-15.8c1-2.6,1.9-5.7,2.7-9.1c1-3.3,1.7-5.7,2.2-7.1c1-2.5,1.8-5,2.5-7.6c1-1.6,1.6-2.5,1.7-2.7
		c0.8-0.8,2-1.1,3.7-1c3.9,0.8,5.3,3,4.2,6.6c-0.8,2.5-1.7,5.3-2.7,8.6c-1.5,4.4-2.9,8.9-4.2,13.3c-0.3,3.1,0.6,6.4,2.7,9.8
		c1.5,1.3,3,2,4.4,2c2.6-0.5,5-1.1,7.1-1.7c5.7-3.3,10.8-7.1,15.3-11.3c2.3-2.1,4.3-4.3,6.2-6.4c2-2.3,4.2-4.8,6.6-7.4
		c1.5-2,2.5-3.3,3.2-3.9c0.7-1.1,3.2-4.3,7.6-9.6c1,1,1.9,1.7,2.7,2.1c0.8,0.4,1.5,1.9,2,4.6c0,2.3-0.7,4.2-2,5.7
		c-0.5,0.5-1.1,1.2-1.7,2.1c-0.7,0.9-1.1,1.4-1.2,1.6c-0.7,0.7-1.7,2-3.2,3.9c-4.4,5.6-9.1,10.6-14,15
		C451.6,180,447.2,183.2,440.3,187.4z M418.1,135.2c0.3-1.8,1.1-3.2,2.2-4.2c1.1-1,2.5-1.5,3.9-1.5c2.1-0.3,3.5,0.2,4.2,1.7
		c1,0.5,1.4,1.9,1.2,4.2c0,1.5-0.5,2.7-1.5,3.7c-0.7,1.2-2,1.7-3.9,1.7C421.5,140.9,419.4,139,418.1,135.2z"/>
	<path id="XMLID_60_" class="st0" d="M539.5,168.5c1.1-1,2.1-2,3-3l18.2-20.7c3.4,0,5.3,1.6,5.7,4.7c0.2,1.8-0.4,3.8-1.7,5.9
		l-14.8,17c-0.8,1-2,2.2-3.4,3.7c-2.3,2.3-4.4,4.4-6.4,6.4c-2.1,1.8-4.4,3.6-6.6,5.4c-1.5,1.3-3.4,2.6-5.9,3.9c-2.5,1.3-4.5,2-6.2,2
		c-2.5,0.2-4.8-0.1-7.1-0.9c-2.3-0.7-4.2-2.3-5.7-4.6c-1.3-2.8-2.1-5.8-2.5-9.1c0.2-2.5,0.1-4.7-0.2-6.6c0-1.1,0.1-2.1,0.2-2.7
		c0.3-2,0.3-4,0-6.2c-0.5-2-1.2-3.4-2.2-4.4c-2.3-2.5-5.3-3.4-9.1-3c-2,0.5-3.4,1.1-4.4,1.7c-1,0.7-2.2,1.8-3.7,3.4
		c-1.6,2-3.2,4.1-4.7,6.4c-1.5,2.5-2.7,4.5-3.7,6.2c-0.7,1-1.1,1.7-1.2,2.1c-0.2,0.4-0.7,0.9-1.7,1.4c-0.8,0.7-1.6,1-2.3,1.1
		c-0.7,0.1-1.7,0.1-2.8,0.1c-1.5,0-2.5-0.1-3.1-0.4c-0.6-0.2-1.4-0.9-2.3-2.1c-0.8-1-1.4-2.4-1.7-4.2c-0.3-1.8-0.4-3.4-0.2-4.9
		c0.3-1.1,0.9-3.3,1.6-6.4c0.7-3.1,1.4-5.4,1.8-6.9l1.2-3.4l1.2-3.7c0.7-1,1.2-1.8,1.6-2.5c0.4-0.7,1.4-1,2.8-1c2,0,3.3,0.6,4.1,1.8
		c0.7,1.2,0.9,2.4,0.6,3.6c-1,2.5-1.6,4-1.7,4.6c-0.2,0.6-0.3,1.3-0.5,2.1c-0.5,1.1-0.9,2.8-1.4,4.8c-0.4,2.1-0.4,2.6,0.1,1.6
		c0.5-0.8,1-1.8,1.6-2.8c0.6-1.1,1.8-2.5,3.6-4.3c2.1-2.1,4.2-3.8,6.3-5c2.1-1.2,4.5-2.1,7.3-2.6c1.8-0.3,3.7-0.5,5.5-0.5
		c1.9,0,3.3,0.2,4.3,0.5c3.4,0.8,6.4,2.6,8.9,5.4c2.3,2.5,3.6,5.5,3.9,9.1c0.7,3,0.8,6.1,0.5,9.4c0,0.3,0,1,0,2
		c-0.2,1.8-0.3,3.6-0.5,5.4c0.3,1.6,0.7,3,1.2,3.9c1,1,1.7,1.5,2.1,1.6c0.4,0.1,0.9,0,1.6-0.1c1.1,0,2.5-0.7,4.2-2
		c1.6-1.3,2.9-2.2,3.7-2.7c2.3-1.5,4-2.9,5.2-4.2C536.1,172.2,538,170.1,539.5,168.5z"/>
	<path id="XMLID_62_" class="st0" d="M590.5,185.7c-1.5,0-3-0.2-4.4-0.7c-1.5-1-3.2-3-5.2-5.9c-0.7-3-0.8-5.7-0.5-8.4
		c0-1.5,0.7-3.9,2.2-7.1c-0.2,0.2-0.9,1-2.1,2.5c-1.2,1.5-2.6,2.8-4.1,3.9c-4.6,3.4-8.9,5.1-12.8,4.9c-0.7,0.2-1.5,0.2-2.5,0
		c-1.1,0-2.8-0.9-4.9-2.7c-1.3-2-2.2-4.3-2.7-6.9c-0.3-2.8-0.1-5.7,0.7-8.6c0.8-2.6,1.8-4.8,3-6.4c3.6-5.6,6.2-9.3,7.6-11.1
		c2.1-1.8,4.3-3.2,6.4-4.2c3-1.5,5.7-2.1,8.4-2c2.5,0,4.8,0.4,6.9,1.2c2.1,0.8,3.9,2.3,5.2,4.4c0.2,0.3,0.6,1.1,1.2,2.2
		c0.7,1.2,1.4,2,2.2,2.5c2.1,1,2.5,3.2,1.2,6.6c-2.1,2.8-3.9,6.3-5.2,10.6c-1,4.3-1.6,8.2-2,11.8c-0.3,1-0.3,1.9,0,2.7
		c0.5,0.5,0.8,0.9,1,1.2c1-0.3,1.6-0.7,2-1.2c2.6-3,4.8-5.4,6.5-7.4c1.7-2,3.4-3.9,5.2-5.7c1.7-1.8,2.8-3,3.3-3.7
		c1.6-2,3.2-3.9,4.7-5.7c1-1.1,3.4-4.3,7.4-9.6c1.5,1.6,2.6,2.8,3.3,3.6s1.1,1.8,1.1,3.3c-0.3,2.1-0.9,3.9-1.7,5.2
		c-0.3,0.5-0.8,1.2-1.5,2.2c-0.7,1-1.2,1.7-1.7,2.2c-0.5,0.7-1.3,1.7-2.5,3.1c-1.2,1.4-2,2.3-2.5,2.8c-0.8,1-2.1,2.4-3.7,4.2
		c-1.6,1.8-3.3,3.6-4.9,5.3c-1.6,1.7-3.7,3.8-6.2,6.3C596.5,183.7,593.6,185.2,590.5,185.7z M584.6,148.5c0.2-1.8-0.2-3-1-3.7
		c-1.2-1.3-2.5-2-4.2-2c-3,0-5.7,1.1-8.1,3.2c-2.5,2.3-4.4,5-5.9,8.1c-0.7,1.5-1.4,3.2-2.2,5.3c-0.8,2.1-1,3.7-0.5,5
		c0.3,0.3,0.5,0.6,0.5,0.7c0.3,0.3,0.4,0.5,0.2,0.5c1.3,0.3,2.7,0,4.1-1.1c1.4-1.1,3.2-2.4,5.3-4.1
		C577.7,156.2,581.6,152.1,584.6,148.5z"/>
</g>
</svg>
